<svg viewBox="0 0 457 240" xmlns="http://www.w3.org/2000/svg" font-family="sans-serif"><rect x="0.0" y="0.0" width="44.0" height="30" fill="none" stroke="currentColor" stroke-width="1"/><text x="22.0" y="19.6" fill="currentColor" font-size="13" text-anchor="middle" font-weight="bold">Bar</text><rect x="44.0" y="0.0" width="121.4" height="30" fill="none" stroke="currentColor" stroke-width="1"/><text x="104.7" y="19.6" fill="currentColor" font-size="13" text-anchor="middle" font-weight="bold">Category</text><rect x="165.4" y="0.0" width="113.6" height="30" fill="none" stroke="currentColor" stroke-width="1"/><text x="222.2" y="19.6" fill="currentColor" font-size="13" text-anchor="middle" font-weight="bold">Carbohydrate</text><rect x="279.0" y="0.0" width="74.6" height="30" fill="none" stroke="currentColor" stroke-width="1"/><text x="316.3" y="19.6" fill="currentColor" font-size="13" text-anchor="middle" font-weight="bold">Protein</text><rect x="353.6" y="0.0" width="44.0" height="30" fill="none" stroke="currentColor" stroke-width="1"/><text x="375.6" y="19.6" fill="currentColor" font-size="13" text-anchor="middle" font-weight="bold">Fat</text><rect x="397.6" y="0.0" width="59.0" height="30" fill="none" stroke="currentColor" stroke-width="1"/><text x="427.1" y="19.6" fill="currentColor" font-size="13" text-anchor="middle" font-weight="bold">Other</text><rect x="0.0" y="30.0" width="44.0" height="30" fill="none" stroke="currentColor" stroke-width="1"/><text x="22.0" y="49.5" fill="currentColor" font-size="13" text-anchor="middle">M1</text><rect x="44.0" y="30.0" width="121.4" height="30" fill="none" stroke="currentColor" stroke-width="1"/><text x="104.7" y="49.5" fill="currentColor" font-size="13" text-anchor="middle">Millet</text><rect x="165.4" y="30.0" width="113.6" height="30" fill="none" stroke="currentColor" stroke-width="1"/><text x="222.2" y="49.5" fill="currentColor" font-size="13" text-anchor="middle">55</text><rect x="279.0" y="30.0" width="74.6" height="30" fill="none" stroke="currentColor" stroke-width="1"/><text x="316.3" y="49.5" fill="currentColor" font-size="13" text-anchor="middle">8</text><rect x="353.6" y="30.0" width="44.0" height="30" fill="none" stroke="currentColor" stroke-width="1"/><text x="375.6" y="49.5" fill="currentColor" font-size="13" text-anchor="middle">17</text><rect x="397.6" y="30.0" width="59.0" height="30" fill="none" stroke="currentColor" stroke-width="1"/><text x="427.1" y="49.5" fill="currentColor" font-size="13" text-anchor="middle">20</text><rect x="0.0" y="60.0" width="44.0" height="30" fill="none" stroke="currentColor" stroke-width="1"/><text x="22.0" y="79.5" fill="currentColor" font-size="13" text-anchor="middle">M2</text><rect x="44.0" y="60.0" width="121.4" height="30" fill="none" stroke="currentColor" stroke-width="1"/><text x="104.7" y="79.5" fill="currentColor" font-size="13" text-anchor="middle">Millet</text><rect x="165.4" y="60.0" width="113.6" height="30" fill="none" stroke="currentColor" stroke-width="1"/><text x="222.2" y="79.5" fill="currentColor" font-size="13" text-anchor="middle">50</text><rect x="279.0" y="60.0" width="74.6" height="30" fill="none" stroke="currentColor" stroke-width="1"/><text x="316.3" y="79.5" fill="currentColor" font-size="13" text-anchor="middle">12</text><rect x="353.6" y="60.0" width="44.0" height="30" fill="none" stroke="currentColor" stroke-width="1"/><text x="375.6" y="79.5" fill="currentColor" font-size="13" text-anchor="middle">18</text><rect x="397.6" y="60.0" width="59.0" height="30" fill="none" stroke="currentColor" stroke-width="1"/><text x="427.1" y="79.5" fill="currentColor" font-size="13" text-anchor="middle">20</text><rect x="0.0" y="90.0" width="44.0" height="30" fill="none" stroke="currentColor" stroke-width="1"/><text x="22.0" y="109.5" fill="currentColor" font-size="13" text-anchor="middle">M3</text><rect x="44.0" y="90.0" width="121.4" height="30" fill="none" stroke="currentColor" stroke-width="1"/><text x="104.7" y="109.5" fill="currentColor" font-size="13" text-anchor="middle">Millet</text><rect x="165.4" y="90.0" width="113.6" height="30" fill="none" stroke="currentColor" stroke-width="1"/><text x="222.2" y="109.5" fill="currentColor" font-size="13" text-anchor="middle">45</text><rect x="279.0" y="90.0" width="74.6" height="30" fill="none" stroke="currentColor" stroke-width="1"/><text x="316.3" y="109.5" fill="currentColor" font-size="13" text-anchor="middle">8</text><rect x="353.6" y="90.0" width="44.0" height="30" fill="none" stroke="currentColor" stroke-width="1"/><text x="375.6" y="109.5" fill="currentColor" font-size="13" text-anchor="middle">27</text><rect x="397.6" y="90.0" width="59.0" height="30" fill="none" stroke="currentColor" stroke-width="1"/><text x="427.1" y="109.5" fill="currentColor" font-size="13" text-anchor="middle">20</text><rect x="0.0" y="120.0" width="44.0" height="30" fill="none" stroke="currentColor" stroke-width="1"/><text x="22.0" y="139.6" fill="currentColor" font-size="13" text-anchor="middle">P1</text><rect x="44.0" y="120.0" width="121.4" height="30" fill="none" stroke="currentColor" stroke-width="1"/><text x="104.7" y="139.6" fill="currentColor" font-size="13" text-anchor="middle">Pseudo-cereal</text><rect x="165.4" y="120.0" width="113.6" height="30" fill="none" stroke="currentColor" stroke-width="1"/><text x="222.2" y="139.6" fill="currentColor" font-size="13" text-anchor="middle">60</text><rect x="279.0" y="120.0" width="74.6" height="30" fill="none" stroke="currentColor" stroke-width="1"/><text x="316.3" y="139.6" fill="currentColor" font-size="13" text-anchor="middle">16</text><rect x="353.6" y="120.0" width="44.0" height="30" fill="none" stroke="currentColor" stroke-width="1"/><text x="375.6" y="139.6" fill="currentColor" font-size="13" text-anchor="middle">12</text><rect x="397.6" y="120.0" width="59.0" height="30" fill="none" stroke="currentColor" stroke-width="1"/><text x="427.1" y="139.6" fill="currentColor" font-size="13" text-anchor="middle">12</text><rect x="0.0" y="150.0" width="44.0" height="30" fill="none" stroke="currentColor" stroke-width="1"/><text x="22.0" y="169.6" fill="currentColor" font-size="13" text-anchor="middle">P2</text><rect x="44.0" y="150.0" width="121.4" height="30" fill="none" stroke="currentColor" stroke-width="1"/><text x="104.7" y="169.6" fill="currentColor" font-size="13" text-anchor="middle">Pseudo-cereal</text><rect x="165.4" y="150.0" width="113.6" height="30" fill="none" stroke="currentColor" stroke-width="1"/><text x="222.2" y="169.6" fill="currentColor" font-size="13" text-anchor="middle">65</text><rect x="279.0" y="150.0" width="74.6" height="30" fill="none" stroke="currentColor" stroke-width="1"/><text x="316.3" y="169.6" fill="currentColor" font-size="13" text-anchor="middle">20</text><rect x="353.6" y="150.0" width="44.0" height="30" fill="none" stroke="currentColor" stroke-width="1"/><text x="375.6" y="169.6" fill="currentColor" font-size="13" text-anchor="middle">7</text><rect x="397.6" y="150.0" width="59.0" height="30" fill="none" stroke="currentColor" stroke-width="1"/><text x="427.1" y="169.6" fill="currentColor" font-size="13" text-anchor="middle">8</text><rect x="0.0" y="180.0" width="44.0" height="30" fill="none" stroke="currentColor" stroke-width="1"/><text x="22.0" y="199.6" fill="currentColor" font-size="13" text-anchor="middle">C1</text><rect x="44.0" y="180.0" width="121.4" height="30" fill="none" stroke="currentColor" stroke-width="1"/><text x="104.7" y="199.6" fill="currentColor" font-size="13" text-anchor="middle">Cereal</text><rect x="165.4" y="180.0" width="113.6" height="30" fill="none" stroke="currentColor" stroke-width="1"/><text x="222.2" y="199.6" fill="currentColor" font-size="13" text-anchor="middle">75</text><rect x="279.0" y="180.0" width="74.6" height="30" fill="none" stroke="currentColor" stroke-width="1"/><text x="316.3" y="199.6" fill="currentColor" font-size="13" text-anchor="middle">8</text><rect x="353.6" y="180.0" width="44.0" height="30" fill="none" stroke="currentColor" stroke-width="1"/><text x="375.6" y="199.6" fill="currentColor" font-size="13" text-anchor="middle">5</text><rect x="397.6" y="180.0" width="59.0" height="30" fill="none" stroke="currentColor" stroke-width="1"/><text x="427.1" y="199.6" fill="currentColor" font-size="13" text-anchor="middle">12</text><rect x="0.0" y="210.0" width="44.0" height="30" fill="none" stroke="currentColor" stroke-width="1"/><text x="22.0" y="229.6" fill="currentColor" font-size="13" text-anchor="middle">C2</text><rect x="44.0" y="210.0" width="121.4" height="30" fill="none" stroke="currentColor" stroke-width="1"/><text x="104.7" y="229.6" fill="currentColor" font-size="13" text-anchor="middle">Cereal</text><rect x="165.4" y="210.0" width="113.6" height="30" fill="none" stroke="currentColor" stroke-width="1"/><text x="222.2" y="229.6" fill="currentColor" font-size="13" text-anchor="middle">80</text><rect x="279.0" y="210.0" width="74.6" height="30" fill="none" stroke="currentColor" stroke-width="1"/><text x="316.3" y="229.6" fill="currentColor" font-size="13" text-anchor="middle">8</text><rect x="353.6" y="210.0" width="44.0" height="30" fill="none" stroke="currentColor" stroke-width="1"/><text x="375.6" y="229.6" fill="currentColor" font-size="13" text-anchor="middle">4</text><rect x="397.6" y="210.0" width="59.0" height="30" fill="none" stroke="currentColor" stroke-width="1"/><text x="427.1" y="229.6" fill="currentColor" font-size="13" text-anchor="middle">8</text></svg>