<svg viewBox="0 0 390 210" xmlns="http://www.w3.org/2000/svg" font-family="sans-serif"><rect x="0.0" y="0.0" width="66.8" height="30" fill="none" stroke="currentColor" stroke-width="1"/><text x="33.4" y="19.6" fill="currentColor" font-size="13" text-anchor="middle" font-weight="bold">Player</text><rect x="66.8" y="0.0" width="44.0" height="30" fill="none" stroke="currentColor" stroke-width="1"/><text x="88.8" y="19.6" fill="currentColor" font-size="13" text-anchor="middle" font-weight="bold">R1</text><rect x="110.8" y="0.0" width="44.0" height="30" fill="none" stroke="currentColor" stroke-width="1"/><text x="132.8" y="19.6" fill="currentColor" font-size="13" text-anchor="middle" font-weight="bold">R2</text><rect x="154.8" y="0.0" width="44.0" height="30" fill="none" stroke="currentColor" stroke-width="1"/><text x="176.8" y="19.6" fill="currentColor" font-size="13" text-anchor="middle" font-weight="bold">R3</text><rect x="198.8" y="0.0" width="44.0" height="30" fill="none" stroke="currentColor" stroke-width="1"/><text x="220.8" y="19.6" fill="currentColor" font-size="13" text-anchor="middle" font-weight="bold">R4</text><rect x="242.8" y="0.0" width="44.0" height="30" fill="none" stroke="currentColor" stroke-width="1"/><text x="264.8" y="19.6" fill="currentColor" font-size="13" text-anchor="middle" font-weight="bold">R5</text><rect x="286.8" y="0.0" width="44.0" height="30" fill="none" stroke="currentColor" stroke-width="1"/><text x="308.8" y="19.6" fill="currentColor" font-size="13" text-anchor="middle" font-weight="bold">R6</text><rect x="330.8" y="0.0" width="59.0" height="30" fill="none" stroke="currentColor" stroke-width="1"/><text x="360.3" y="19.6" fill="currentColor" font-size="13" text-anchor="middle" font-weight="bold">Total</text><rect x="0.0" y="30.0" width="66.8" height="30" fill="none" stroke="currentColor" stroke-width="1"/><text x="33.4" y="49.5" fill="currentColor" font-size="13" text-anchor="middle">Tara</text><rect x="66.8" y="30.0" width="44.0" height="30" fill="none" stroke="currentColor" stroke-width="1"/><text x="88.8" y="49.5" fill="currentColor" font-size="13" text-anchor="middle">5</text><rect x="110.8" y="30.0" width="44.0" height="30" fill="none" stroke="currentColor" stroke-width="1"/><text x="132.8" y="49.5" fill="currentColor" font-size="13" text-anchor="middle">1</text><rect x="154.8" y="30.0" width="44.0" height="30" fill="none" stroke="currentColor" stroke-width="1"/><text x="176.8" y="49.5" fill="currentColor" font-size="13" text-anchor="middle"></text><rect x="198.8" y="30.0" width="44.0" height="30" fill="none" stroke="currentColor" stroke-width="1"/><text x="220.8" y="49.5" fill="currentColor" font-size="13" text-anchor="middle"></text><rect x="242.8" y="30.0" width="44.0" height="30" fill="none" stroke="currentColor" stroke-width="1"/><text x="264.8" y="49.5" fill="currentColor" font-size="13" text-anchor="middle">NP</text><rect x="286.8" y="30.0" width="44.0" height="30" fill="none" stroke="currentColor" stroke-width="1"/><text x="308.8" y="49.5" fill="currentColor" font-size="13" text-anchor="middle">NP</text><rect x="330.8" y="30.0" width="59.0" height="30" fill="none" stroke="currentColor" stroke-width="1"/><text x="360.3" y="49.5" fill="currentColor" font-size="13" text-anchor="middle"></text><rect x="0.0" y="60.0" width="66.8" height="30" fill="none" stroke="currentColor" stroke-width="1"/><text x="33.4" y="79.5" fill="currentColor" font-size="13" text-anchor="middle">Uday</text><rect x="66.8" y="60.0" width="44.0" height="30" fill="none" stroke="currentColor" stroke-width="1"/><text x="88.8" y="79.5" fill="currentColor" font-size="13" text-anchor="middle"></text><rect x="110.8" y="60.0" width="44.0" height="30" fill="none" stroke="currentColor" stroke-width="1"/><text x="132.8" y="79.5" fill="currentColor" font-size="13" text-anchor="middle">5</text><rect x="154.8" y="60.0" width="44.0" height="30" fill="none" stroke="currentColor" stroke-width="1"/><text x="176.8" y="79.5" fill="currentColor" font-size="13" text-anchor="middle">2</text><rect x="198.8" y="60.0" width="44.0" height="30" fill="none" stroke="currentColor" stroke-width="1"/><text x="220.8" y="79.5" fill="currentColor" font-size="13" text-anchor="middle">NP</text><rect x="242.8" y="60.0" width="44.0" height="30" fill="none" stroke="currentColor" stroke-width="1"/><text x="264.8" y="79.5" fill="currentColor" font-size="13" text-anchor="middle">3</text><rect x="286.8" y="60.0" width="44.0" height="30" fill="none" stroke="currentColor" stroke-width="1"/><text x="308.8" y="79.5" fill="currentColor" font-size="13" text-anchor="middle">NP</text><rect x="330.8" y="60.0" width="59.0" height="30" fill="none" stroke="currentColor" stroke-width="1"/><text x="360.3" y="79.5" fill="currentColor" font-size="13" text-anchor="middle"></text><rect x="0.0" y="90.0" width="66.8" height="30" fill="none" stroke="currentColor" stroke-width="1"/><text x="33.4" y="109.5" fill="currentColor" font-size="13" text-anchor="middle">Vidya</text><rect x="66.8" y="90.0" width="44.0" height="30" fill="none" stroke="currentColor" stroke-width="1"/><text x="88.8" y="109.5" fill="currentColor" font-size="13" text-anchor="middle"></text><rect x="110.8" y="90.0" width="44.0" height="30" fill="none" stroke="currentColor" stroke-width="1"/><text x="132.8" y="109.5" fill="currentColor" font-size="13" text-anchor="middle">5</text><rect x="154.8" y="90.0" width="44.0" height="30" fill="none" stroke="currentColor" stroke-width="1"/><text x="176.8" y="109.5" fill="currentColor" font-size="13" text-anchor="middle">4</text><rect x="198.8" y="90.0" width="44.0" height="30" fill="none" stroke="currentColor" stroke-width="1"/><text x="220.8" y="109.5" fill="currentColor" font-size="13" text-anchor="middle">NP</text><rect x="242.8" y="90.0" width="44.0" height="30" fill="none" stroke="currentColor" stroke-width="1"/><text x="264.8" y="109.5" fill="currentColor" font-size="13" text-anchor="middle">2</text><rect x="286.8" y="90.0" width="44.0" height="30" fill="none" stroke="currentColor" stroke-width="1"/><text x="308.8" y="109.5" fill="currentColor" font-size="13" text-anchor="middle">NP</text><rect x="330.8" y="90.0" width="59.0" height="30" fill="none" stroke="currentColor" stroke-width="1"/><text x="360.3" y="109.5" fill="currentColor" font-size="13" text-anchor="middle"></text><rect x="0.0" y="120.0" width="66.8" height="30" fill="none" stroke="currentColor" stroke-width="1"/><text x="33.4" y="139.6" fill="currentColor" font-size="13" text-anchor="middle">Wasim</text><rect x="66.8" y="120.0" width="44.0" height="30" fill="none" stroke="currentColor" stroke-width="1"/><text x="88.8" y="139.6" fill="currentColor" font-size="13" text-anchor="middle">3</text><rect x="110.8" y="120.0" width="44.0" height="30" fill="none" stroke="currentColor" stroke-width="1"/><text x="132.8" y="139.6" fill="currentColor" font-size="13" text-anchor="middle">4</text><rect x="154.8" y="120.0" width="44.0" height="30" fill="none" stroke="currentColor" stroke-width="1"/><text x="176.8" y="139.6" fill="currentColor" font-size="13" text-anchor="middle">5</text><rect x="198.8" y="120.0" width="44.0" height="30" fill="none" stroke="currentColor" stroke-width="1"/><text x="220.8" y="139.6" fill="currentColor" font-size="13" text-anchor="middle">NP</text><rect x="242.8" y="120.0" width="44.0" height="30" fill="none" stroke="currentColor" stroke-width="1"/><text x="264.8" y="139.6" fill="currentColor" font-size="13" text-anchor="middle">NP</text><rect x="286.8" y="120.0" width="44.0" height="30" fill="none" stroke="currentColor" stroke-width="1"/><text x="308.8" y="139.6" fill="currentColor" font-size="13" text-anchor="middle">3</text><rect x="330.8" y="120.0" width="59.0" height="30" fill="none" stroke="currentColor" stroke-width="1"/><text x="360.3" y="139.6" fill="currentColor" font-size="13" text-anchor="middle">15</text><rect x="0.0" y="150.0" width="66.8" height="30" fill="none" stroke="currentColor" stroke-width="1"/><text x="33.4" y="169.6" fill="currentColor" font-size="13" text-anchor="middle">Yara</text><rect x="66.8" y="150.0" width="44.0" height="30" fill="none" stroke="currentColor" stroke-width="1"/><text x="88.8" y="169.6" fill="currentColor" font-size="13" text-anchor="middle">2</text><rect x="110.8" y="150.0" width="44.0" height="30" fill="none" stroke="currentColor" stroke-width="1"/><text x="132.8" y="169.6" fill="currentColor" font-size="13" text-anchor="middle">2</text><rect x="154.8" y="150.0" width="44.0" height="30" fill="none" stroke="currentColor" stroke-width="1"/><text x="176.8" y="169.6" fill="currentColor" font-size="13" text-anchor="middle">3</text><rect x="198.8" y="150.0" width="44.0" height="30" fill="none" stroke="currentColor" stroke-width="1"/><text x="220.8" y="169.6" fill="currentColor" font-size="13" text-anchor="middle">NP</text><rect x="242.8" y="150.0" width="44.0" height="30" fill="none" stroke="currentColor" stroke-width="1"/><text x="264.8" y="169.6" fill="currentColor" font-size="13" text-anchor="middle">NP</text><rect x="286.8" y="150.0" width="44.0" height="30" fill="none" stroke="currentColor" stroke-width="1"/><text x="308.8" y="169.6" fill="currentColor" font-size="13" text-anchor="middle">NP</text><rect x="330.8" y="150.0" width="59.0" height="30" fill="none" stroke="currentColor" stroke-width="1"/><text x="360.3" y="169.6" fill="currentColor" font-size="13" text-anchor="middle">7</text><rect x="0.0" y="180.0" width="66.8" height="30" fill="none" stroke="currentColor" stroke-width="1"/><text x="33.4" y="199.6" fill="currentColor" font-size="13" text-anchor="middle">Zane</text><rect x="66.8" y="180.0" width="44.0" height="30" fill="none" stroke="currentColor" stroke-width="1"/><text x="88.8" y="199.6" fill="currentColor" font-size="13" text-anchor="middle">5</text><rect x="110.8" y="180.0" width="44.0" height="30" fill="none" stroke="currentColor" stroke-width="1"/><text x="132.8" y="199.6" fill="currentColor" font-size="13" text-anchor="middle">1</text><rect x="154.8" y="180.0" width="44.0" height="30" fill="none" stroke="currentColor" stroke-width="1"/><text x="176.8" y="199.6" fill="currentColor" font-size="13" text-anchor="middle">4</text><rect x="198.8" y="180.0" width="44.0" height="30" fill="none" stroke="currentColor" stroke-width="1"/><text x="220.8" y="199.6" fill="currentColor" font-size="13" text-anchor="middle"></text><rect x="242.8" y="180.0" width="44.0" height="30" fill="none" stroke="currentColor" stroke-width="1"/><text x="264.8" y="199.6" fill="currentColor" font-size="13" text-anchor="middle">NP</text><rect x="286.8" y="180.0" width="44.0" height="30" fill="none" stroke="currentColor" stroke-width="1"/><text x="308.8" y="199.6" fill="currentColor" font-size="13" text-anchor="middle">NP</text><rect x="330.8" y="180.0" width="59.0" height="30" fill="none" stroke="currentColor" stroke-width="1"/><text x="360.3" y="199.6" fill="currentColor" font-size="13" text-anchor="middle"></text></svg>