<svg viewBox="0 0 357 300" xmlns="http://www.w3.org/2000/svg" font-family="sans-serif"><text x="178.6" y="15" fill="currentColor" font-size="13" text-anchor="middle" font-weight="bold">Seeding (highest seed #1 to lowest #16)</text><rect x="30.2" y="28.0" width="53.8" height="30" fill="none" stroke="currentColor" stroke-width="1"/><text x="57.0" y="47.2" fill="currentColor" font-size="12" text-anchor="middle" font-weight="bold">Seed</text><rect x="83.9" y="28.0" width="98.4" height="30" fill="none" stroke="currentColor" stroke-width="1"/><text x="133.1" y="47.2" fill="currentColor" font-size="12" text-anchor="middle" font-weight="bold">Player</text><rect x="182.3" y="28.0" width="53.8" height="30" fill="none" stroke="currentColor" stroke-width="1"/><text x="209.2" y="47.2" fill="currentColor" font-size="12" text-anchor="middle" font-weight="bold">Seed</text><rect x="236.1" y="28.0" width="91.0" height="30" fill="none" stroke="currentColor" stroke-width="1"/><text x="281.6" y="47.2" fill="currentColor" font-size="12" text-anchor="middle" font-weight="bold">Player</text><rect x="30.2" y="58.0" width="53.8" height="30" fill="none" stroke="currentColor" stroke-width="1"/><text x="57.0" y="77.2" fill="currentColor" font-size="12" text-anchor="middle">1</text><rect x="83.9" y="58.0" width="98.4" height="30" fill="none" stroke="currentColor" stroke-width="1"/><text x="133.1" y="77.2" fill="currentColor" font-size="12" text-anchor="middle">Adamova</text><rect x="182.3" y="58.0" width="53.8" height="30" fill="none" stroke="currentColor" stroke-width="1"/><text x="209.2" y="77.2" fill="currentColor" font-size="12" text-anchor="middle">9</text><rect x="236.1" y="58.0" width="91.0" height="30" fill="none" stroke="currentColor" stroke-width="1"/><text x="281.6" y="77.2" fill="currentColor" font-size="12" text-anchor="middle">Ivanova</text><rect x="30.2" y="88.0" width="53.8" height="30" fill="none" stroke="currentColor" stroke-width="1"/><text x="57.0" y="107.2" fill="currentColor" font-size="12" text-anchor="middle">2</text><rect x="83.9" y="88.0" width="98.4" height="30" fill="none" stroke="currentColor" stroke-width="1"/><text x="133.1" y="107.2" fill="currentColor" font-size="12" text-anchor="middle">Bjornsen</text><rect x="182.3" y="88.0" width="53.8" height="30" fill="none" stroke="currentColor" stroke-width="1"/><text x="209.2" y="107.2" fill="currentColor" font-size="12" text-anchor="middle">10</text><rect x="236.1" y="88.0" width="91.0" height="30" fill="none" stroke="currentColor" stroke-width="1"/><text x="281.6" y="107.2" fill="currentColor" font-size="12" text-anchor="middle">Jansen</text><rect x="30.2" y="118.0" width="53.8" height="30" fill="none" stroke="currentColor" stroke-width="1"/><text x="57.0" y="137.2" fill="currentColor" font-size="12" text-anchor="middle">3</text><rect x="83.9" y="118.0" width="98.4" height="30" fill="none" stroke="currentColor" stroke-width="1"/><text x="133.1" y="137.2" fill="currentColor" font-size="12" text-anchor="middle">Castellano</text><rect x="182.3" y="118.0" width="53.8" height="30" fill="none" stroke="currentColor" stroke-width="1"/><text x="209.2" y="137.2" fill="currentColor" font-size="12" text-anchor="middle">11</text><rect x="236.1" y="118.0" width="91.0" height="30" fill="none" stroke="currentColor" stroke-width="1"/><text x="281.6" y="137.2" fill="currentColor" font-size="12" text-anchor="middle">Kovac</text><rect x="30.2" y="148.0" width="53.8" height="30" fill="none" stroke="currentColor" stroke-width="1"/><text x="57.0" y="167.2" fill="currentColor" font-size="12" text-anchor="middle">4</text><rect x="83.9" y="148.0" width="98.4" height="30" fill="none" stroke="currentColor" stroke-width="1"/><text x="133.1" y="167.2" fill="currentColor" font-size="12" text-anchor="middle">Duval</text><rect x="182.3" y="148.0" width="53.8" height="30" fill="none" stroke="currentColor" stroke-width="1"/><text x="209.2" y="167.2" fill="currentColor" font-size="12" text-anchor="middle">12</text><rect x="236.1" y="148.0" width="91.0" height="30" fill="none" stroke="currentColor" stroke-width="1"/><text x="281.6" y="167.2" fill="currentColor" font-size="12" text-anchor="middle">Lindqvist</text><rect x="30.2" y="178.0" width="53.8" height="30" fill="none" stroke="currentColor" stroke-width="1"/><text x="57.0" y="197.2" fill="currentColor" font-size="12" text-anchor="middle">5</text><rect x="83.9" y="178.0" width="98.4" height="30" fill="none" stroke="currentColor" stroke-width="1"/><text x="133.1" y="197.2" fill="currentColor" font-size="12" text-anchor="middle">Eriksson</text><rect x="182.3" y="178.0" width="53.8" height="30" fill="none" stroke="currentColor" stroke-width="1"/><text x="209.2" y="197.2" fill="currentColor" font-size="12" text-anchor="middle">13</text><rect x="236.1" y="178.0" width="91.0" height="30" fill="none" stroke="currentColor" stroke-width="1"/><text x="281.6" y="197.2" fill="currentColor" font-size="12" text-anchor="middle">Mehta</text><rect x="30.2" y="208.0" width="53.8" height="30" fill="none" stroke="currentColor" stroke-width="1"/><text x="57.0" y="227.2" fill="currentColor" font-size="12" text-anchor="middle">6</text><rect x="83.9" y="208.0" width="98.4" height="30" fill="none" stroke="currentColor" stroke-width="1"/><text x="133.1" y="227.2" fill="currentColor" font-size="12" text-anchor="middle">Fontaine</text><rect x="182.3" y="208.0" width="53.8" height="30" fill="none" stroke="currentColor" stroke-width="1"/><text x="209.2" y="227.2" fill="currentColor" font-size="12" text-anchor="middle">14</text><rect x="236.1" y="208.0" width="91.0" height="30" fill="none" stroke="currentColor" stroke-width="1"/><text x="281.6" y="227.2" fill="currentColor" font-size="12" text-anchor="middle">Novak</text><rect x="30.2" y="238.0" width="53.8" height="30" fill="none" stroke="currentColor" stroke-width="1"/><text x="57.0" y="257.2" fill="currentColor" font-size="12" text-anchor="middle">7</text><rect x="83.9" y="238.0" width="98.4" height="30" fill="none" stroke="currentColor" stroke-width="1"/><text x="133.1" y="257.2" fill="currentColor" font-size="12" text-anchor="middle">Greco</text><rect x="182.3" y="238.0" width="53.8" height="30" fill="none" stroke="currentColor" stroke-width="1"/><text x="209.2" y="257.2" fill="currentColor" font-size="12" text-anchor="middle">15</text><rect x="236.1" y="238.0" width="91.0" height="30" fill="none" stroke="currentColor" stroke-width="1"/><text x="281.6" y="257.2" fill="currentColor" font-size="12" text-anchor="middle">Oduya</text><rect x="30.2" y="268.0" width="53.8" height="30" fill="none" stroke="currentColor" stroke-width="1"/><text x="57.0" y="287.2" fill="currentColor" font-size="12" text-anchor="middle">8</text><rect x="83.9" y="268.0" width="98.4" height="30" fill="none" stroke="currentColor" stroke-width="1"/><text x="133.1" y="287.2" fill="currentColor" font-size="12" text-anchor="middle">Haas</text><rect x="182.3" y="268.0" width="53.8" height="30" fill="none" stroke="currentColor" stroke-width="1"/><text x="209.2" y="287.2" fill="currentColor" font-size="12" text-anchor="middle">16</text><rect x="236.1" y="268.0" width="91.0" height="30" fill="none" stroke="currentColor" stroke-width="1"/><text x="281.6" y="287.2" fill="currentColor" font-size="12" text-anchor="middle">Pereira</text></svg>