<svg xmlns="http://www.w3.org/2000/svg" viewBox="0 0 470 370" font-family="Arial, Helvetica, sans-serif"><rect width="470" height="370" fill="#ffffff"/><text x="20" y="30" font-size="16" fill="#1f2937" text-anchor="start" font-weight="bold">Price card and the surviving leaderboard</text><text x="20" y="52" font-size="12" fill="#64748b" text-anchor="start" font-weight="normal">Rank 1 = highest; no ties on either count.</text><rect x="20" y="72" width="90" height="34" fill="#e2e8f0" stroke="#e2e8f0"/><text x="65.0" y="94.0" font-size="12" fill="#1f2937" text-anchor="middle" font-weight="bold">Stall</text><rect x="110" y="72" width="70" height="34" fill="#e2e8f0" stroke="#e2e8f0"/><text x="145.0" y="94.0" font-size="12" fill="#1f2937" text-anchor="middle" font-weight="bold">Price</text><rect x="180" y="72" width="130" height="34" fill="#e2e8f0" stroke="#e2e8f0"/><text x="245.0" y="94.0" font-size="12" fill="#1f2937" text-anchor="middle" font-weight="bold">Rank by plates</text><rect x="310" y="72" width="140" height="34" fill="#e2e8f0" stroke="#e2e8f0"/><text x="380.0" y="94.0" font-size="12" fill="#1f2937" text-anchor="middle" font-weight="bold">Rank by revenue</text><rect x="20" y="106" width="90" height="34" fill="#ffffff" stroke="#e2e8f0"/><text x="65.0" y="128.0" font-size="12" fill="#1f2937" text-anchor="middle" font-weight="normal">Anar</text><rect x="110" y="106" width="70" height="34" fill="#e0f2fe" stroke="#e2e8f0"/><text x="145.0" y="128.0" font-size="12" fill="#1f2937" text-anchor="middle" font-weight="normal">30</text><rect x="180" y="106" width="130" height="34" fill="#ffffff" stroke="#e2e8f0"/><text x="245.0" y="128.0" font-size="12" fill="#1f2937" text-anchor="middle" font-weight="normal">?</text><rect x="310" y="106" width="140" height="34" fill="#e0f2fe" stroke="#e2e8f0"/><text x="380.0" y="128.0" font-size="12" fill="#1f2937" text-anchor="middle" font-weight="normal">4</text><rect x="20" y="140" width="90" height="34" fill="#ffffff" stroke="#e2e8f0"/><text x="65.0" y="162.0" font-size="12" fill="#1f2937" text-anchor="middle" font-weight="normal">Bhutta</text><rect x="110" y="140" width="70" height="34" fill="#e0f2fe" stroke="#e2e8f0"/><text x="145.0" y="162.0" font-size="12" fill="#1f2937" text-anchor="middle" font-weight="normal">45</text><rect x="180" y="140" width="130" height="34" fill="#ffffff" stroke="#e2e8f0"/><text x="245.0" y="162.0" font-size="12" fill="#1f2937" text-anchor="middle" font-weight="normal">?</text><rect x="310" y="140" width="140" height="34" fill="#ffffff" stroke="#e2e8f0"/><text x="380.0" y="162.0" font-size="12" fill="#1f2937" text-anchor="middle" font-weight="normal">?</text><rect x="20" y="174" width="90" height="34" fill="#ffffff" stroke="#e2e8f0"/><text x="65.0" y="196.0" font-size="12" fill="#1f2937" text-anchor="middle" font-weight="normal">Chaat</text><rect x="110" y="174" width="70" height="34" fill="#e0f2fe" stroke="#e2e8f0"/><text x="145.0" y="196.0" font-size="12" fill="#1f2937" text-anchor="middle" font-weight="normal">20</text><rect x="180" y="174" width="130" height="34" fill="#e0f2fe" stroke="#e2e8f0"/><text x="245.0" y="196.0" font-size="12" fill="#1f2937" text-anchor="middle" font-weight="normal">1</text><rect x="310" y="174" width="140" height="34" fill="#e0f2fe" stroke="#e2e8f0"/><text x="380.0" y="196.0" font-size="12" fill="#1f2937" text-anchor="middle" font-weight="normal">6</text><rect x="20" y="208" width="90" height="34" fill="#ffffff" stroke="#e2e8f0"/><text x="65.0" y="230.0" font-size="12" fill="#1f2937" text-anchor="middle" font-weight="normal">Dosa</text><rect x="110" y="208" width="70" height="34" fill="#e0f2fe" stroke="#e2e8f0"/><text x="145.0" y="230.0" font-size="12" fill="#1f2937" text-anchor="middle" font-weight="normal">60</text><rect x="180" y="208" width="130" height="34" fill="#ffffff" stroke="#e2e8f0"/><text x="245.0" y="230.0" font-size="12" fill="#1f2937" text-anchor="middle" font-weight="normal">?</text><rect x="310" y="208" width="140" height="34" fill="#e0f2fe" stroke="#e2e8f0"/><text x="380.0" y="230.0" font-size="12" fill="#1f2937" text-anchor="middle" font-weight="normal">1</text><rect x="20" y="242" width="90" height="34" fill="#ffffff" stroke="#e2e8f0"/><text x="65.0" y="264.0" font-size="12" fill="#1f2937" text-anchor="middle" font-weight="normal">Elaichi</text><rect x="110" y="242" width="70" height="34" fill="#e0f2fe" stroke="#e2e8f0"/><text x="145.0" y="264.0" font-size="12" fill="#1f2937" text-anchor="middle" font-weight="normal">40</text><rect x="180" y="242" width="130" height="34" fill="#e0f2fe" stroke="#e2e8f0"/><text x="245.0" y="264.0" font-size="12" fill="#1f2937" text-anchor="middle" font-weight="normal">4</text><rect x="310" y="242" width="140" height="34" fill="#ffffff" stroke="#e2e8f0"/><text x="380.0" y="264.0" font-size="12" fill="#1f2937" text-anchor="middle" font-weight="normal">?</text><rect x="20" y="276" width="90" height="34" fill="#ffffff" stroke="#e2e8f0"/><text x="65.0" y="298.0" font-size="12" fill="#1f2937" text-anchor="middle" font-weight="normal">Falooda</text><rect x="110" y="276" width="70" height="34" fill="#e0f2fe" stroke="#e2e8f0"/><text x="145.0" y="298.0" font-size="12" fill="#1f2937" text-anchor="middle" font-weight="normal">25</text><rect x="180" y="276" width="130" height="34" fill="#ffffff" stroke="#e2e8f0"/><text x="245.0" y="298.0" font-size="12" fill="#1f2937" text-anchor="middle" font-weight="normal">?</text><rect x="310" y="276" width="140" height="34" fill="#ffffff" stroke="#e2e8f0"/><text x="380.0" y="298.0" font-size="12" fill="#1f2937" text-anchor="middle" font-weight="normal">?</text><text x="20" y="330" font-size="12" fill="#64748b" text-anchor="start" font-weight="normal">Tally survives as: Bhutta 180, Dosa 150,</text><text x="20" y="348" font-size="12" fill="#64748b" text-anchor="start" font-weight="normal">Falooda 270; all six together: 1,350.</text></svg>