<svg xmlns="http://www.w3.org/2000/svg" width="880" height="368" viewBox="0 0 880 368" font-family="Arial, Helvetica, sans-serif"><rect width="880" height="368" fill="#ffffff"/><svg x="4" y="4"><svg xmlns="http://www.w3.org/2000/svg" width="430" height="360" viewBox="0 0 430 360" font-family="Arial, Helvetica, sans-serif"><rect width="430" height="360" fill="#ffffff"/><defs><pattern id="hatch" width="6" height="6" patternUnits="userSpaceOnUse" patternTransform="rotate(45)"><rect width="6" height="6" fill="#fdf6ec"/><line x1="0" y1="0" x2="0" y2="6" stroke="#c98a3c" stroke-width="2"/></pattern></defs><text x="70" y="26" font-size="16" font-weight="bold" fill="#1f2937">Spend, by campaign (stacked by platform)</text><text x="70" y="44" font-size="11" fill="#64748b">thousand rupees</text><line x1="70" y1="296.0" x2="406" y2="296.0" stroke="#cbd5e1" stroke-width="1.4"/><text x="62" y="300.0" font-size="11" fill="#64748b" text-anchor="end">0</text><line x1="70" y1="281.9" x2="406" y2="281.9" stroke="#cbd5e1" stroke-width="0.7"/><text x="62" y="285.9" font-size="11" fill="#64748b" text-anchor="end">5</text><line x1="70" y1="267.8" x2="406" y2="267.8" stroke="#cbd5e1" stroke-width="0.7"/><text x="62" y="271.8" font-size="11" fill="#64748b" text-anchor="end">10</text><line x1="70" y1="253.6" x2="406" y2="253.6" stroke="#cbd5e1" stroke-width="0.7"/><text x="62" y="257.6" font-size="11" fill="#64748b" text-anchor="end">15</text><line x1="70" y1="239.5" x2="406" y2="239.5" stroke="#cbd5e1" stroke-width="0.7"/><text x="62" y="243.5" font-size="11" fill="#64748b" text-anchor="end">20</text><line x1="70" y1="225.4" x2="406" y2="225.4" stroke="#cbd5e1" stroke-width="0.7"/><text x="62" y="229.4" font-size="11" fill="#64748b" text-anchor="end">25</text><line x1="70" y1="211.3" x2="406" y2="211.3" stroke="#cbd5e1" stroke-width="0.7"/><text x="62" y="215.3" font-size="11" fill="#64748b" text-anchor="end">30</text><line x1="70" y1="197.2" x2="406" y2="197.2" stroke="#cbd5e1" stroke-width="0.7"/><text x="62" y="201.2" font-size="11" fill="#64748b" text-anchor="end">35</text><line x1="70" y1="183.1" x2="406" y2="183.1" stroke="#cbd5e1" stroke-width="0.7"/><text x="62" y="187.1" font-size="11" fill="#64748b" text-anchor="end">40</text><line x1="70" y1="168.9" x2="406" y2="168.9" stroke="#cbd5e1" stroke-width="0.7"/><text x="62" y="172.9" font-size="11" fill="#64748b" text-anchor="end">45</text><line x1="70" y1="154.8" x2="406" y2="154.8" stroke="#cbd5e1" stroke-width="0.7"/><text x="62" y="158.8" font-size="11" fill="#64748b" text-anchor="end">50</text><line x1="70" y1="140.7" x2="406" y2="140.7" stroke="#cbd5e1" stroke-width="0.7"/><text x="62" y="144.7" font-size="11" fill="#64748b" text-anchor="end">55</text><line x1="70" y1="126.6" x2="406" y2="126.6" stroke="#cbd5e1" stroke-width="0.7"/><text x="62" y="130.6" font-size="11" fill="#64748b" text-anchor="end">60</text><line x1="70" y1="112.5" x2="406" y2="112.5" stroke="#cbd5e1" stroke-width="0.7"/><text x="62" y="116.5" font-size="11" fill="#64748b" text-anchor="end">65</text><line x1="70" y1="98.4" x2="406" y2="98.4" stroke="#cbd5e1" stroke-width="0.7"/><text x="62" y="102.4" font-size="11" fill="#64748b" text-anchor="end">70</text><line x1="70" y1="84.2" x2="406" y2="84.2" stroke="#cbd5e1" stroke-width="0.7"/><text x="62" y="88.2" font-size="11" fill="#64748b" text-anchor="end">75</text><line x1="70" y1="70.1" x2="406" y2="70.1" stroke="#cbd5e1" stroke-width="0.7"/><text x="62" y="74.1" font-size="11" fill="#64748b" text-anchor="end">80</text><line x1="70" y1="56.0" x2="406" y2="56.0" stroke="#cbd5e1" stroke-width="0.7"/><text x="62" y="60.0" font-size="11" fill="#64748b" text-anchor="end">85</text><rect x="86.1" y="239.5" width="34.9" height="56.5" fill="#0284c7" stroke="#ffffff" stroke-width="0.8"/><rect x="86.1" y="126.6" width="34.9" height="112.9" fill="#f59e0b" stroke="#ffffff" stroke-width="0.8"/><rect x="153.3" y="168.9" width="34.9" height="127.1" fill="#94a3b8" stroke="#ffffff" stroke-width="0.8"/><rect x="220.5" y="126.6" width="34.9" height="169.4" fill="#0284c7" stroke="#ffffff" stroke-width="0.8"/><rect x="220.5" y="70.1" width="34.9" height="56.5" fill="#f59e0b" stroke="#ffffff" stroke-width="0.8"/><rect x="287.7" y="197.2" width="34.9" height="98.8" fill="#94a3b8" stroke="#ffffff" stroke-width="0.8"/><rect x="354.9" y="239.5" width="34.9" height="56.5" fill="#0284c7" stroke="#ffffff" stroke-width="0.8"/><rect x="354.9" y="154.8" width="34.9" height="84.7" fill="#f59e0b" stroke="#ffffff" stroke-width="0.8"/><text x="103.6" y="314" font-size="11.5" fill="#1f2937" text-anchor="middle">P</text><text x="170.8" y="314" font-size="11.5" fill="#1f2937" text-anchor="middle">Q*</text><text x="238.0" y="314" font-size="11.5" fill="#1f2937" text-anchor="middle">R</text><text x="305.2" y="314" font-size="11.5" fill="#1f2937" text-anchor="middle">S*</text><text x="372.4" y="314" font-size="11.5" fill="#1f2937" text-anchor="middle">T</text><rect x="70" y="334" width="11" height="11" fill="#0284c7"/><text x="86" y="344" font-size="11" fill="#1f2937">Adnet</text><rect x="148.0" y="334" width="11" height="11" fill="#f59e0b"/><text x="164.0" y="344" font-size="11" fill="#1f2937">Briefly</text><rect x="240.4" y="334" width="11" height="11" fill="#94a3b8"/><text x="256.4" y="344" font-size="11" fill="#1f2937">split not recorded</text><text x="406" y="357" font-size="10.5" fill="#64748b" text-anchor="end">* platform split not recorded</text></svg></svg><svg x="446" y="4"><svg xmlns="http://www.w3.org/2000/svg" width="430" height="360" viewBox="0 0 430 360" font-family="Arial, Helvetica, sans-serif"><rect width="430" height="360" fill="#ffffff"/><defs><pattern id="hatch" width="6" height="6" patternUnits="userSpaceOnUse" patternTransform="rotate(45)"><rect width="6" height="6" fill="#fdf6ec"/><line x1="0" y1="0" x2="0" y2="6" stroke="#c98a3c" stroke-width="2"/></pattern></defs><text x="70" y="26" font-size="16" font-weight="bold" fill="#1f2937">Cost per click, by campaign</text><text x="70" y="44" font-size="11" fill="#64748b">rupees per click</text><line x1="70" y1="296.0" x2="406" y2="296.0" stroke="#cbd5e1" stroke-width="1.4"/><text x="62" y="300.0" font-size="11" fill="#64748b" text-anchor="end">0</text><line x1="70" y1="261.7" x2="406" y2="261.7" stroke="#cbd5e1" stroke-width="0.7"/><text x="62" y="265.7" font-size="11" fill="#64748b" text-anchor="end">5</text><line x1="70" y1="227.4" x2="406" y2="227.4" stroke="#cbd5e1" stroke-width="0.7"/><text x="62" y="231.4" font-size="11" fill="#64748b" text-anchor="end">10</text><line x1="70" y1="193.1" x2="406" y2="193.1" stroke="#cbd5e1" stroke-width="0.7"/><text x="62" y="197.1" font-size="11" fill="#64748b" text-anchor="end">15</text><line x1="70" y1="158.9" x2="406" y2="158.9" stroke="#cbd5e1" stroke-width="0.7"/><text x="62" y="162.9" font-size="11" fill="#64748b" text-anchor="end">20</text><line x1="70" y1="124.6" x2="406" y2="124.6" stroke="#cbd5e1" stroke-width="0.7"/><text x="62" y="128.6" font-size="11" fill="#64748b" text-anchor="end">25</text><line x1="70" y1="90.3" x2="406" y2="90.3" stroke="#cbd5e1" stroke-width="0.7"/><text x="62" y="94.3" font-size="11" fill="#64748b" text-anchor="end">30</text><line x1="70" y1="56.0" x2="406" y2="56.0" stroke="#cbd5e1" stroke-width="0.7"/><text x="62" y="60.0" font-size="11" fill="#64748b" text-anchor="end">35</text><rect x="79.4" y="227.4" width="22.3" height="68.6" fill="#0284c7"/><rect x="103.6" y="158.9" width="22.3" height="137.1" fill="#f59e0b"/><rect x="146.6" y="193.1" width="22.3" height="102.9" fill="#0284c7"/><rect x="170.8" y="261.7" width="22.3" height="34.3" fill="#f59e0b"/><rect x="213.8" y="90.3" width="22.3" height="205.7" fill="#0284c7"/><rect x="238.0" y="158.9" width="22.3" height="137.1" fill="#f59e0b"/><rect x="281.0" y="261.7" width="22.3" height="34.3" fill="#0284c7"/><rect x="305.2" y="227.4" width="22.3" height="68.6" fill="#f59e0b"/><rect x="348.2" y="261.7" width="22.3" height="34.3" fill="#0284c7"/><rect x="372.4" y="227.4" width="22.3" height="68.6" fill="#f59e0b"/><text x="103.6" y="314" font-size="11.5" fill="#1f2937" text-anchor="middle">P</text><text x="170.8" y="314" font-size="11.5" fill="#1f2937" text-anchor="middle">Q</text><text x="238.0" y="314" font-size="11.5" fill="#1f2937" text-anchor="middle">R</text><text x="305.2" y="314" font-size="11.5" fill="#1f2937" text-anchor="middle">S</text><text x="372.4" y="314" font-size="11.5" fill="#1f2937" text-anchor="middle">T</text><rect x="70" y="334" width="11" height="11" fill="#0284c7"/><text x="86" y="344" font-size="11" fill="#1f2937">Adnet</text><rect x="148.0" y="334" width="11" height="11" fill="#f59e0b"/><text x="164.0" y="344" font-size="11" fill="#1f2937">Briefly</text></svg></svg></svg>