<svg xmlns="http://www.w3.org/2000/svg" width="860" height="380" viewBox="0 0 860 380" font-family="Arial, Helvetica, sans-serif"><rect width="860" height="380" fill="#ffffff"/><defs><pattern id="hatch" width="6" height="6" patternUnits="userSpaceOnUse" patternTransform="rotate(45)"><rect width="6" height="6" fill="#fdf6ec"/><line x1="0" y1="0" x2="0" y2="6" stroke="#c98a3c" stroke-width="2"/></pattern></defs><text x="70" y="26" font-size="16" font-weight="bold" fill="#1f2937">Bikes at each station</text><text x="70" y="44" font-size="11" fill="#64748b">number of bikes</text><line x1="70" y1="316.0" x2="836" y2="316.0" stroke="#cbd5e1" stroke-width="1.4"/><text x="62" y="320.0" font-size="11" fill="#64748b" text-anchor="end">0</text><line x1="70" y1="292.4" x2="836" y2="292.4" stroke="#cbd5e1" stroke-width="0.7"/><text x="62" y="296.4" font-size="11" fill="#64748b" text-anchor="end">5</text><line x1="70" y1="268.7" x2="836" y2="268.7" stroke="#cbd5e1" stroke-width="0.7"/><text x="62" y="272.7" font-size="11" fill="#64748b" text-anchor="end">10</text><line x1="70" y1="245.1" x2="836" y2="245.1" stroke="#cbd5e1" stroke-width="0.7"/><text x="62" y="249.1" font-size="11" fill="#64748b" text-anchor="end">15</text><line x1="70" y1="221.5" x2="836" y2="221.5" stroke="#cbd5e1" stroke-width="0.7"/><text x="62" y="225.5" font-size="11" fill="#64748b" text-anchor="end">20</text><line x1="70" y1="197.8" x2="836" y2="197.8" stroke="#cbd5e1" stroke-width="0.7"/><text x="62" y="201.8" font-size="11" fill="#64748b" text-anchor="end">25</text><line x1="70" y1="174.2" x2="836" y2="174.2" stroke="#cbd5e1" stroke-width="0.7"/><text x="62" y="178.2" font-size="11" fill="#64748b" text-anchor="end">30</text><line x1="70" y1="150.5" x2="836" y2="150.5" stroke="#cbd5e1" stroke-width="0.7"/><text x="62" y="154.5" font-size="11" fill="#64748b" text-anchor="end">35</text><line x1="70" y1="126.9" x2="836" y2="126.9" stroke="#cbd5e1" stroke-width="0.7"/><text x="62" y="130.9" font-size="11" fill="#64748b" text-anchor="end">40</text><line x1="70" y1="103.3" x2="836" y2="103.3" stroke="#cbd5e1" stroke-width="0.7"/><text x="62" y="107.3" font-size="11" fill="#64748b" text-anchor="end">45</text><line x1="70" y1="79.6" x2="836" y2="79.6" stroke="#cbd5e1" stroke-width="0.7"/><text x="62" y="83.6" font-size="11" fill="#64748b" text-anchor="end">50</text><line x1="70" y1="56.0" x2="836" y2="56.0" stroke="#cbd5e1" stroke-width="0.7"/><text x="62" y="60.0" font-size="11" fill="#64748b" text-anchor="end">55</text><rect x="87.9" y="174.2" width="42.3" height="141.8" fill="#0284c7"/><rect x="133.8" y="126.9" width="42.3" height="189.1" fill="#f59e0b"/><rect x="215.5" y="103.3" width="42.3" height="212.7" fill="#0284c7"/><rect x="261.5" y="174.2" width="42.3" height="141.8" fill="#f59e0b"/><rect x="343.2" y="197.8" width="42.3" height="118.2" fill="#0284c7"/><rect x="389.2" y="150.5" width="42.3" height="165.5" fill="#f59e0b"/><rect x="470.9" y="79.6" width="42.3" height="236.4" fill="#0284c7"/><rect x="516.8" y="103.3" width="42.3" height="212.7" fill="#f59e0b"/><rect x="598.5" y="221.5" width="42.3" height="94.5" fill="#0284c7"/><rect x="644.5" y="174.2" width="42.3" height="141.8" fill="#f59e0b"/><rect x="726.2" y="126.9" width="42.3" height="189.1" fill="#0284c7"/><rect x="772.2" y="174.2" width="42.3" height="141.8" fill="#f59e0b"/><text x="133.8" y="334" font-size="11.5" fill="#1f2937" text-anchor="middle">A</text><text x="261.5" y="334" font-size="11.5" fill="#1f2937" text-anchor="middle">B</text><text x="389.2" y="334" font-size="11.5" fill="#1f2937" text-anchor="middle">C</text><text x="516.8" y="334" font-size="11.5" fill="#1f2937" text-anchor="middle">D</text><text x="644.5" y="334" font-size="11.5" fill="#1f2937" text-anchor="middle">E</text><text x="772.2" y="334" font-size="11.5" fill="#1f2937" text-anchor="middle">F</text><rect x="70" y="354" width="11" height="11" fill="#0284c7"/><text x="86" y="364" font-size="11" fill="#1f2937">at close</text><rect x="169.6" y="354" width="11" height="11" fill="#f59e0b"/><text x="185.6" y="364" font-size="11" fill="#1f2937">at open (next morning)</text><text x="836" y="377" font-size="10.5" fill="#64748b" text-anchor="end">overnight van transfers only</text></svg>