<svg viewBox="0 0 419 203" xmlns="http://www.w3.org/2000/svg" font-family="sans-serif"><rect x="0.0" y="0.0" width="76.4" height="29.0" fill="none" stroke="currentColor" stroke-width="1"/><text x="38.2" y="19.1" fill="currentColor" font-size="13" text-anchor="middle" font-weight="bold">Trainee</text><rect x="76.4" y="0.0" width="84.5" height="29.0" fill="none" stroke="currentColor" stroke-width="1"/><text x="118.7" y="19.1" fill="currentColor" font-size="13" text-anchor="middle" font-weight="bold">Sum of 5</text><rect x="160.9" y="0.0" width="149.0" height="29.0" fill="none" stroke="currentColor" stroke-width="1"/><text x="235.4" y="19.1" fill="currentColor" font-size="13" text-anchor="middle" font-weight="bold">Lowest (dropped)</text><rect x="309.9" y="0.0" width="108.7" height="29.0" fill="none" stroke="currentColor" stroke-width="1"/><text x="364.2" y="19.1" fill="currentColor" font-size="13" text-anchor="middle" font-weight="bold">Final score</text><rect x="0.0" y="29.0" width="76.4" height="29.0" fill="none" stroke="currentColor" stroke-width="1"/><text x="38.2" y="48.0" fill="currentColor" font-size="13" text-anchor="middle">Aarav</text><rect x="76.4" y="29.0" width="84.5" height="29.0" fill="none" stroke="currentColor" stroke-width="1"/><text x="118.7" y="48.0" fill="currentColor" font-size="13" text-anchor="middle">395</text><rect x="160.9" y="29.0" width="149.0" height="29.0" fill="none" stroke="currentColor" stroke-width="1"/><text x="235.4" y="48.0" fill="currentColor" font-size="13" text-anchor="middle">68</text><rect x="309.9" y="29.0" width="108.7" height="29.0" fill="none" stroke="currentColor" stroke-width="1"/><text x="364.2" y="48.0" fill="currentColor" font-size="13" text-anchor="middle">81.75</text><rect x="0.0" y="58.0" width="76.4" height="29.0" fill="none" stroke="currentColor" stroke-width="1"/><text x="38.2" y="77.0" fill="currentColor" font-size="13" text-anchor="middle">Bina</text><rect x="76.4" y="58.0" width="84.5" height="29.0" fill="none" stroke="currentColor" stroke-width="1"/><text x="118.7" y="77.0" fill="currentColor" font-size="13" text-anchor="middle">407</text><rect x="160.9" y="58.0" width="149.0" height="29.0" fill="none" stroke="currentColor" stroke-width="1"/><text x="235.4" y="77.0" fill="currentColor" font-size="13" text-anchor="middle">60</text><rect x="309.9" y="58.0" width="108.7" height="29.0" fill="none" stroke="currentColor" stroke-width="1"/><text x="364.2" y="77.0" fill="currentColor" font-size="13" text-anchor="middle">86.75</text><rect x="0.0" y="87.0" width="76.4" height="29.0" fill="none" stroke="currentColor" stroke-width="1"/><text x="38.2" y="106.0" fill="currentColor" font-size="13" text-anchor="middle">Chetan</text><rect x="76.4" y="87.0" width="84.5" height="29.0" fill="none" stroke="currentColor" stroke-width="1"/><text x="118.7" y="106.0" fill="currentColor" font-size="13" text-anchor="middle">435</text><rect x="160.9" y="87.0" width="149.0" height="29.0" fill="none" stroke="currentColor" stroke-width="1"/><text x="235.4" y="106.0" fill="currentColor" font-size="13" text-anchor="middle">75</text><rect x="309.9" y="87.0" width="108.7" height="29.0" fill="none" stroke="currentColor" stroke-width="1"/><text x="364.2" y="106.0" fill="currentColor" font-size="13" text-anchor="middle">90</text><rect x="0.0" y="116.0" width="76.4" height="29.0" fill="none" stroke="currentColor" stroke-width="1"/><text x="38.2" y="135.1" fill="currentColor" font-size="13" text-anchor="middle">Divya</text><rect x="76.4" y="116.0" width="84.5" height="29.0" fill="none" stroke="currentColor" stroke-width="1"/><text x="118.7" y="135.1" fill="currentColor" font-size="13" text-anchor="middle">423</text><rect x="160.9" y="116.0" width="149.0" height="29.0" fill="none" stroke="currentColor" stroke-width="1"/><text x="235.4" y="135.1" fill="currentColor" font-size="13" text-anchor="middle">70</text><rect x="309.9" y="116.0" width="108.7" height="29.0" fill="none" stroke="currentColor" stroke-width="1"/><text x="364.2" y="135.1" fill="currentColor" font-size="13" text-anchor="middle">88.25</text><rect x="0.0" y="145.0" width="76.4" height="29.0" fill="none" stroke="currentColor" stroke-width="1"/><text x="38.2" y="164.1" fill="currentColor" font-size="13" text-anchor="middle">Esha</text><rect x="76.4" y="145.0" width="84.5" height="29.0" fill="none" stroke="currentColor" stroke-width="1"/><text x="118.7" y="164.1" fill="currentColor" font-size="13" text-anchor="middle">432</text><rect x="160.9" y="145.0" width="149.0" height="29.0" fill="none" stroke="currentColor" stroke-width="1"/><text x="235.4" y="164.1" fill="currentColor" font-size="13" text-anchor="middle">76</text><rect x="309.9" y="145.0" width="108.7" height="29.0" fill="none" stroke="currentColor" stroke-width="1"/><text x="364.2" y="164.1" fill="currentColor" font-size="13" text-anchor="middle">89</text><rect x="0.0" y="174.0" width="76.4" height="29.0" fill="none" stroke="currentColor" stroke-width="1"/><text x="38.2" y="193.1" fill="currentColor" font-size="13" text-anchor="middle">Farhan</text><rect x="76.4" y="174.0" width="84.5" height="29.0" fill="none" stroke="currentColor" stroke-width="1"/><text x="118.7" y="193.1" fill="currentColor" font-size="13" text-anchor="middle">410</text><rect x="160.9" y="174.0" width="149.0" height="29.0" fill="none" stroke="currentColor" stroke-width="1"/><text x="235.4" y="193.1" fill="currentColor" font-size="13" text-anchor="middle">72</text><rect x="309.9" y="174.0" width="108.7" height="29.0" fill="none" stroke="currentColor" stroke-width="1"/><text x="364.2" y="193.1" fill="currentColor" font-size="13" text-anchor="middle">84.5</text></svg>