<svg xmlns="http://www.w3.org/2000/svg" width="560" height="420" viewBox="0 0 560 420" font-family="Arial, Helvetica, sans-serif"><rect width="560" height="420" fill="#ffffff"/><text x="280.0" y="22" text-anchor="middle" font-size="13" font-weight="bold" fill="#111">One week at the Swift Wheels hub</text><line x1="74.0" y1="40" x2="74.0" y2="364" stroke="#333" stroke-width="1"/><text x="74.0" y="380" text-anchor="middle" font-size="10" fill="#444">0</text><line x1="140.9" y1="40" x2="140.9" y2="364" stroke="#c8ccd2" stroke-width="1"/><line x1="207.7" y1="40" x2="207.7" y2="364" stroke="#c8ccd2" stroke-width="1"/><text x="207.7" y="380" text-anchor="middle" font-size="10" fill="#444">20</text><line x1="274.6" y1="40" x2="274.6" y2="364" stroke="#c8ccd2" stroke-width="1"/><line x1="341.4" y1="40" x2="341.4" y2="364" stroke="#c8ccd2" stroke-width="1"/><text x="341.4" y="380" text-anchor="middle" font-size="10" fill="#444">40</text><line x1="408.3" y1="40" x2="408.3" y2="364" stroke="#c8ccd2" stroke-width="1"/><line x1="475.1" y1="40" x2="475.1" y2="364" stroke="#c8ccd2" stroke-width="1"/><text x="475.1" y="380" text-anchor="middle" font-size="10" fill="#444">60</text><line x1="542.0" y1="40" x2="542.0" y2="364" stroke="#c8ccd2" stroke-width="1"/><line x1="74" y1="364.0" x2="542" y2="364.0" stroke="#333" stroke-width="1"/><text x="68" y="367.5" text-anchor="end" font-size="10" fill="#444">0</text><line x1="74" y1="337.0" x2="542" y2="337.0" stroke="#c8ccd2" stroke-width="1"/><line x1="74" y1="310.0" x2="542" y2="310.0" stroke="#c8ccd2" stroke-width="1"/><text x="68" y="313.5" text-anchor="end" font-size="10" fill="#444">20</text><line x1="74" y1="283.0" x2="542" y2="283.0" stroke="#c8ccd2" stroke-width="1"/><line x1="74" y1="256.0" x2="542" y2="256.0" stroke="#c8ccd2" stroke-width="1"/><text x="68" y="259.5" text-anchor="end" font-size="10" fill="#444">40</text><line x1="74" y1="229.0" x2="542" y2="229.0" stroke="#c8ccd2" stroke-width="1"/><line x1="74" y1="202.0" x2="542" y2="202.0" stroke="#c8ccd2" stroke-width="1"/><text x="68" y="205.5" text-anchor="end" font-size="10" fill="#444">60</text><line x1="74" y1="175.0" x2="542" y2="175.0" stroke="#c8ccd2" stroke-width="1"/><line x1="74" y1="148.0" x2="542" y2="148.0" stroke="#c8ccd2" stroke-width="1"/><text x="68" y="151.5" text-anchor="end" font-size="10" fill="#444">80</text><line x1="74" y1="121.0" x2="542" y2="121.0" stroke="#c8ccd2" stroke-width="1"/><line x1="74" y1="94.0" x2="542" y2="94.0" stroke="#c8ccd2" stroke-width="1"/><text x="68" y="97.5" text-anchor="end" font-size="10" fill="#444">100</text><line x1="74" y1="67.0" x2="542" y2="67.0" stroke="#c8ccd2" stroke-width="1"/><line x1="74" y1="40.0" x2="542" y2="40.0" stroke="#c8ccd2" stroke-width="1"/><text x="68" y="43.5" text-anchor="end" font-size="10" fill="#444">120</text><circle cx="274.6" cy="202.0" r="4.5" fill="#0f766e" stroke="#ffffff" stroke-width="1"/><text x="282.6" y="196.0" font-size="11" font-weight="bold" fill="#0f766e">1</text><circle cx="274.6" cy="94.0" r="4.5" fill="#0f766e" stroke="#ffffff" stroke-width="1"/><text x="282.6" y="88.0" font-size="11" font-weight="bold" fill="#0f766e">2</text><circle cx="341.4" cy="148.0" r="4.5" fill="#0f766e" stroke="#ffffff" stroke-width="1"/><text x="349.4" y="142.0" font-size="11" font-weight="bold" fill="#0f766e">3</text><circle cx="408.3" cy="202.0" r="4.5" fill="#0f766e" stroke="#ffffff" stroke-width="1"/><text x="416.3" y="196.0" font-size="11" font-weight="bold" fill="#0f766e">4</text><circle cx="408.3" cy="121.0" r="4.5" fill="#0f766e" stroke="#ffffff" stroke-width="1"/><text x="416.3" y="115.0" font-size="11" font-weight="bold" fill="#0f766e">5</text><circle cx="475.1" cy="175.0" r="4.5" fill="#0f766e" stroke="#ffffff" stroke-width="1"/><text x="483.1" y="169.0" font-size="11" font-weight="bold" fill="#0f766e">6</text><text x="308.0" y="396" text-anchor="middle" font-size="11" fill="#222">parcels delivered</text><text x="16" y="202.0" text-anchor="middle" font-size="11" fill="#222" transform="rotate(-90 16 202.0)">kilometres ridden</text><text x="308.0" y="412" text-anchor="middle" font-size="10.5" font-style="italic" fill="#555">The hub never labelled the points - the numerals are for reference only.</text></svg>