<svg xmlns="http://www.w3.org/2000/svg" viewBox="0 0 320 402" font-family="Arial, Helvetica, sans-serif"><rect width="320" height="402" fill="#ffffff"/><text x="20" y="30" font-size="16" fill="#1f2937" text-anchor="start" font-weight="bold">Chandni Bakehouse — seven fair days</text><text x="20" y="52" font-size="12" fill="#64748b" text-anchor="start" font-weight="normal">Six changes, each used once:</text><text x="20" y="68" font-size="12" fill="#64748b" text-anchor="start" font-weight="normal">+20%, +25%, +50%, +60%, -20%, -25%.</text><rect x="20" y="88" width="120" height="34" fill="#e2e8f0" stroke="#e2e8f0"/><text x="80.0" y="110.0" font-size="12" fill="#1f2937" text-anchor="middle" font-weight="bold">Day</text><rect x="140" y="88" width="160" height="34" fill="#e2e8f0" stroke="#e2e8f0"/><text x="220.0" y="110.0" font-size="12" fill="#1f2937" text-anchor="middle" font-weight="bold">Batches</text><rect x="20" y="122" width="120" height="34" fill="#ffffff" stroke="#e2e8f0"/><text x="80.0" y="144.0" font-size="12" fill="#1f2937" text-anchor="middle" font-weight="normal">1</text><rect x="140" y="122" width="160" height="34" fill="#e0f2fe" stroke="#e2e8f0"/><text x="220.0" y="144.0" font-size="12" fill="#1f2937" text-anchor="middle" font-weight="normal">150</text><rect x="20" y="156" width="120" height="34" fill="#ffffff" stroke="#e2e8f0"/><text x="80.0" y="178.0" font-size="12" fill="#1f2937" text-anchor="middle" font-weight="normal">2</text><rect x="140" y="156" width="160" height="34" fill="#ffffff" stroke="#e2e8f0"/><text x="220.0" y="178.0" font-size="12" fill="#1f2937" text-anchor="middle" font-weight="normal">?</text><rect x="20" y="190" width="120" height="34" fill="#ffffff" stroke="#e2e8f0"/><text x="80.0" y="212.0" font-size="12" fill="#1f2937" text-anchor="middle" font-weight="normal">3</text><rect x="140" y="190" width="160" height="34" fill="#ffffff" stroke="#e2e8f0"/><text x="220.0" y="212.0" font-size="12" fill="#1f2937" text-anchor="middle" font-weight="normal">?</text><rect x="20" y="224" width="120" height="34" fill="#ffffff" stroke="#e2e8f0"/><text x="80.0" y="246.0" font-size="12" fill="#1f2937" text-anchor="middle" font-weight="normal">4</text><rect x="140" y="224" width="160" height="34" fill="#ffffff" stroke="#e2e8f0"/><text x="220.0" y="246.0" font-size="12" fill="#1f2937" text-anchor="middle" font-weight="normal">?</text><rect x="20" y="258" width="120" height="34" fill="#ffffff" stroke="#e2e8f0"/><text x="80.0" y="280.0" font-size="12" fill="#1f2937" text-anchor="middle" font-weight="normal">5</text><rect x="140" y="258" width="160" height="34" fill="#ffffff" stroke="#e2e8f0"/><text x="220.0" y="280.0" font-size="12" fill="#1f2937" text-anchor="middle" font-weight="normal">?</text><rect x="20" y="292" width="120" height="34" fill="#ffffff" stroke="#e2e8f0"/><text x="80.0" y="314.0" font-size="12" fill="#1f2937" text-anchor="middle" font-weight="normal">6</text><rect x="140" y="292" width="160" height="34" fill="#ffffff" stroke="#e2e8f0"/><text x="220.0" y="314.0" font-size="12" fill="#1f2937" text-anchor="middle" font-weight="normal">?</text><rect x="20" y="326" width="120" height="34" fill="#ffffff" stroke="#e2e8f0"/><text x="80.0" y="348.0" font-size="12" fill="#1f2937" text-anchor="middle" font-weight="normal">7</text><rect x="140" y="326" width="160" height="34" fill="#e0f2fe" stroke="#e2e8f0"/><text x="220.0" y="348.0" font-size="12" fill="#1f2937" text-anchor="middle" font-weight="normal">324</text><text x="20" y="380" font-size="12" fill="#64748b" text-anchor="start" font-weight="normal">Whole-number batches every day.</text></svg>