<svg viewBox="0 0 250 319" xmlns="http://www.w3.org/2000/svg" font-family="sans-serif"><rect x="0.0" y="0.0" width="124.8" height="29.0" fill="none" stroke="currentColor" stroke-width="1"/><text x="62.4" y="19.1" fill="currentColor" font-size="13" text-anchor="middle" font-weight="bold">Pair</text><rect x="124.8" y="0.0" width="124.8" height="29.0" fill="none" stroke="currentColor" stroke-width="1"/><text x="187.2" y="19.1" fill="currentColor" font-size="13" text-anchor="middle" font-weight="bold">Dissimilarity</text><rect x="0.0" y="29.0" width="124.8" height="29.0" fill="none" stroke="currentColor" stroke-width="1"/><text x="62.4" y="48.0" fill="currentColor" font-size="13" text-anchor="middle">Pune-Raipur</text><rect x="124.8" y="29.0" width="124.8" height="29.0" fill="none" stroke="currentColor" stroke-width="1"/><text x="187.2" y="48.0" fill="currentColor" font-size="13" text-anchor="middle">4</text><rect x="0.0" y="58.0" width="124.8" height="29.0" fill="none" stroke="currentColor" stroke-width="1"/><text x="62.4" y="77.0" fill="currentColor" font-size="13" text-anchor="middle">Pune-Quilon</text><rect x="124.8" y="58.0" width="124.8" height="29.0" fill="none" stroke="currentColor" stroke-width="1"/><text x="187.2" y="77.0" fill="currentColor" font-size="13" text-anchor="middle">3</text><rect x="0.0" y="87.0" width="124.8" height="29.0" fill="none" stroke="currentColor" stroke-width="1"/><text x="62.4" y="106.0" fill="currentColor" font-size="13" text-anchor="middle">Pune-Trichy</text><rect x="124.8" y="87.0" width="124.8" height="29.0" fill="none" stroke="currentColor" stroke-width="1"/><text x="187.2" y="106.0" fill="currentColor" font-size="13" text-anchor="middle">3</text><rect x="0.0" y="116.0" width="124.8" height="29.0" fill="none" stroke="currentColor" stroke-width="1"/><text x="62.4" y="135.1" fill="currentColor" font-size="13" text-anchor="middle">Quilon-Raipur</text><rect x="124.8" y="116.0" width="124.8" height="29.0" fill="none" stroke="currentColor" stroke-width="1"/><text x="187.2" y="135.1" fill="currentColor" font-size="13" text-anchor="middle">3</text><rect x="0.0" y="145.0" width="124.8" height="29.0" fill="none" stroke="currentColor" stroke-width="1"/><text x="62.4" y="164.1" fill="currentColor" font-size="13" text-anchor="middle">Raipur-Surat</text><rect x="124.8" y="145.0" width="124.8" height="29.0" fill="none" stroke="currentColor" stroke-width="1"/><text x="187.2" y="164.1" fill="currentColor" font-size="13" text-anchor="middle">3</text><rect x="0.0" y="174.0" width="124.8" height="29.0" fill="none" stroke="currentColor" stroke-width="1"/><text x="62.4" y="193.1" fill="currentColor" font-size="13" text-anchor="middle">Surat-Trichy</text><rect x="124.8" y="174.0" width="124.8" height="29.0" fill="none" stroke="currentColor" stroke-width="1"/><text x="187.2" y="193.1" fill="currentColor" font-size="13" text-anchor="middle">3</text><rect x="0.0" y="203.0" width="124.8" height="29.0" fill="none" stroke="currentColor" stroke-width="1"/><text x="62.4" y="222.1" fill="currentColor" font-size="13" text-anchor="middle">Pune-Surat</text><rect x="124.8" y="203.0" width="124.8" height="29.0" fill="none" stroke="currentColor" stroke-width="1"/><text x="187.2" y="222.1" fill="currentColor" font-size="13" text-anchor="middle">2</text><rect x="0.0" y="232.0" width="124.8" height="29.0" fill="none" stroke="currentColor" stroke-width="1"/><text x="62.4" y="251.1" fill="currentColor" font-size="13" text-anchor="middle">Quilon-Surat</text><rect x="124.8" y="232.0" width="124.8" height="29.0" fill="none" stroke="currentColor" stroke-width="1"/><text x="187.2" y="251.1" fill="currentColor" font-size="13" text-anchor="middle">2</text><rect x="0.0" y="261.0" width="124.8" height="29.0" fill="none" stroke="currentColor" stroke-width="1"/><text x="62.4" y="280.1" fill="currentColor" font-size="13" text-anchor="middle">Quilon-Trichy</text><rect x="124.8" y="261.0" width="124.8" height="29.0" fill="none" stroke="currentColor" stroke-width="1"/><text x="187.2" y="280.1" fill="currentColor" font-size="13" text-anchor="middle">2</text><rect x="0.0" y="290.0" width="124.8" height="29.0" fill="none" stroke="currentColor" stroke-width="1"/><text x="62.4" y="309.1" fill="currentColor" font-size="13" text-anchor="middle">Raipur-Trichy</text><rect x="124.8" y="290.0" width="124.8" height="29.0" fill="none" stroke="currentColor" stroke-width="1"/><text x="187.2" y="309.1" fill="currentColor" font-size="13" text-anchor="middle">2</text></svg>