<svg viewBox="0 0 377 180" xmlns="http://www.w3.org/2000/svg" font-family="Arial, sans-serif"><text x="188.5" y="15" fill="currentColor" font-size="13" text-anchor="middle" font-weight="bold">Renewal queue (2 counters, 15 min each)</text><rect x="0.0" y="26.0" width="157.9" height="30" fill="none" stroke="currentColor" stroke-width="1"/><text x="79.0" y="45.2" fill="currentColor" font-size="12" text-anchor="middle" font-weight="bold">Renewal applicant</text><rect x="157.9" y="26.0" width="128.2" height="30" fill="none" stroke="currentColor" stroke-width="1"/><text x="222.0" y="45.2" fill="currentColor" font-size="12" text-anchor="middle" font-weight="bold">Enters service</text><rect x="286.1" y="26.0" width="91.0" height="30" fill="none" stroke="currentColor" stroke-width="1"/><text x="331.6" y="45.2" fill="currentColor" font-size="12" text-anchor="middle" font-weight="bold">Completes</text><rect x="0.0" y="56.0" width="157.9" height="30" fill="none" stroke="currentColor" stroke-width="1"/><text x="79.0" y="75.2" fill="currentColor" font-size="12" text-anchor="middle">(3rd of 9:00 slot)</text><rect x="157.9" y="56.0" width="128.2" height="30" fill="none" stroke="currentColor" stroke-width="1"/><text x="222.0" y="75.2" fill="currentColor" font-size="12" text-anchor="middle">9:15</text><rect x="286.1" y="56.0" width="91.0" height="30" fill="none" stroke="currentColor" stroke-width="1"/><text x="331.6" y="75.2" fill="currentColor" font-size="12" text-anchor="middle">9:30</text><rect x="0.0" y="86.0" width="157.9" height="30" fill="none" stroke="currentColor" stroke-width="1"/><text x="79.0" y="105.2" fill="currentColor" font-size="12" text-anchor="middle">Aarav (9:15 slot)</text><rect x="157.9" y="86.0" width="128.2" height="30" fill="none" stroke="currentColor" stroke-width="1"/><text x="222.0" y="105.2" fill="currentColor" font-size="12" text-anchor="middle">9:15</text><rect x="286.1" y="86.0" width="91.0" height="30" fill="none" stroke="currentColor" stroke-width="1"/><text x="331.6" y="105.2" fill="currentColor" font-size="12" text-anchor="middle">9:30</text><rect x="0.0" y="116.0" width="157.9" height="30" fill="none" stroke="currentColor" stroke-width="1"/><text x="79.0" y="135.2" fill="currentColor" font-size="12" text-anchor="middle">Bina (9:15 slot)</text><rect x="157.9" y="116.0" width="128.2" height="30" fill="none" stroke="currentColor" stroke-width="1"/><text x="222.0" y="135.2" fill="currentColor" font-size="12" text-anchor="middle">9:30</text><rect x="286.1" y="116.0" width="91.0" height="30" fill="none" stroke="currentColor" stroke-width="1"/><text x="331.6" y="135.2" fill="currentColor" font-size="12" text-anchor="middle">9:45</text><rect x="0.0" y="146.0" width="157.9" height="30" fill="none" stroke="currentColor" stroke-width="1"/><text x="79.0" y="165.2" fill="currentColor" font-size="12" text-anchor="middle">Chetan (9:15 slot)</text><rect x="157.9" y="146.0" width="128.2" height="30" fill="none" stroke="currentColor" stroke-width="1"/><text x="222.0" y="165.2" fill="currentColor" font-size="12" text-anchor="middle">9:30</text><rect x="286.1" y="146.0" width="91.0" height="30" fill="none" stroke="currentColor" stroke-width="1"/><text x="331.6" y="165.2" fill="currentColor" font-size="12" text-anchor="middle">9:45</text></svg>